<?xml version="1.0" standalone="no"?>
<!DOCTYPE svg PUBLIC "-//W3C//DTD SVG 20010904//EN"
 "http://www.w3.org/TR/2001/REC-SVG-20010904/DTD/svg10.dtd">
<svg version="1.0" xmlns="http://www.w3.org/2000/svg"
 width="95.000000pt" height="96.000000pt" viewBox="0 0 95.000000 96.000000"
 preserveAspectRatio="xMidYMid meet">

<g transform="translate(0.000000,96.000000) scale(0.100000,-0.100000)"
fill="#000000" stroke="none">
<path d="M0 480 l0 -480 475 0 475 0 0 480 0 480 -475 0 -475 0 0 -480z m540
398 c42 -19 95 -72 109 -111 23 -61 9 -144 -35 -204 -14 -19 -20 -34 -14 -38
15 -9 12 -62 -6 -98 -18 -34 -53 -77 -64 -77 -14 0 -19 58 -11 112 9 52 8 53
-24 80 -22 19 -40 47 -53 88 -12 33 -19 60 -16 60 19 0 87 -45 113 -75 31 -35
33 -36 46 -19 22 29 37 94 30 130 -7 42 -50 93 -92 110 -21 9 -74 14 -155 14
l-123 0 3 -371 2 -371 163 4 c181 4 223 16 267 79 47 66 34 169 -28 226 -23
21 -32 37 -28 48 5 14 8 14 36 0 48 -25 83 -87 88 -155 7 -99 -30 -169 -112
-213 -38 -21 -54 -22 -236 -22 l-195 0 -3 399 c-2 304 1 402 10 414 17 20 276
13 328 -10z m-85 -338 c4 -6 1 -18 -6 -26 -11 -13 -14 -13 -27 0 -8 8 -11 19
-8 25 9 14 33 14 41 1z m45 -40 c0 -13 -7 -20 -18 -20 -26 0 -34 11 -21 27 17
20 39 16 39 -7z m-72 -22 c4 -19 -27 -33 -41 -19 -7 7 -6 16 3 26 15 18 34 15
38 -7z m52 -23 c10 -12 9 -16 -5 -21 -19 -8 -40 9 -31 25 10 15 21 14 36 -4z"/>
<path d="M470 637 c0 -14 28 -63 43 -76 12 -9 17 -9 22 0 4 6 -8 26 -29 47
-20 20 -36 33 -36 29z"/>
<path d="M556 493 c-10 -36 -18 -93 -12 -93 11 0 36 59 36 85 0 28 -16 34 -24
8z"/>
</g>
</svg>
