<?xml version="1.0" standalone="no"?>
<!DOCTYPE svg PUBLIC "-//W3C//DTD SVG 20010904//EN"
 "http://www.w3.org/TR/2001/REC-SVG-20010904/DTD/svg10.dtd">
<svg version="1.0" xmlns="http://www.w3.org/2000/svg"
 width="90" height="50" viewBox="0 0 80.000000 90.000000"
 preserveAspectRatio="xMidYMid meet">

<g transform="translate(0.000000,90.000000) scale(0.100000,-0.100000)"
fill="#000000" stroke="none">
<path d="M186 795 c-8 -21 -8 -658 0 -679 5 -14 28 -16 153 -16 80 0 164 5
186 11 54 15 121 83 130 132 13 68 -3 127 -45 169 -21 21 -43 38 -49 38 -21 0
-11 -31 21 -59 28 -25 32 -35 36 -93 4 -61 2 -67 -27 -101 -42 -48 -72 -55
-231 -59 l-135 -3 0 320 0 320 110 0 c96 -1 115 -3 146 -23 42 -26 59 -58 59
-113 0 -36 -23 -99 -36 -99 -3 0 -17 14 -31 30 -22 27 -71 60 -88 60 -22 0 37
-126 63 -134 15 -5 17 -17 14 -81 -5 -82 3 -92 37 -49 31 40 47 100 32 118
-10 12 -8 22 15 51 59 78 37 197 -46 248 -31 19 -52 22 -171 25 -120 3 -137 2
-143 -13z m269 -236 c27 -32 27 -46 1 -36 -18 7 -51 67 -37 67 5 0 21 -14 36
-31z m56 -110 c-1 -13 -8 -33 -14 -44 -14 -27 -21 -5 -12 41 7 39 32 42 26 3z"/>
<path d="M370 495 c0 -10 7 -15 18 -13 21 4 19 22 -2 26 -10 2 -16 -3 -16 -13z"/>
<path d="M411 476 c-12 -14 -5 -26 16 -26 15 0 18 26 4 34 -5 3 -14 0 -20 -8z"/>
<path d="M344 459 c-10 -17 13 -36 27 -22 12 12 4 33 -11 33 -5 0 -12 -5 -16
-11z"/>
<path d="M392 428 c5 -15 28 -18 29 -3 0 6 -7 12 -17 13 -10 3 -15 -1 -12 -10z"/>
</g>
</svg>
