<?xml version="1.0" standalone="no"?>
<!DOCTYPE svg PUBLIC "-//W3C//DTD SVG 20010904//EN"
 "http://www.w3.org/TR/2001/REC-SVG-20010904/DTD/svg10.dtd">
<svg version="1.0" xmlns="http://www.w3.org/2000/svg"
 width="50" height="50" viewBox="0 0 90.000000 90.000000"
 preserveAspectRatio="xMidYMid meet">

<g transform="translate(0.000000,90.000000) scale(0.100000,-0.100000)"
fill="#000000" stroke="none">
<path d="M0 450 l0 -450 450 0 450 0 0 450 0 450 -450 0 -450 0 0 -450z m523
296 c18 -7 45 -28 60 -45 36 -44 38 -122 4 -173 -18 -25 -21 -38 -14 -50 8
-11 4 -29 -14 -64 -37 -74 -52 -71 -47 10 3 56 1 67 -13 71 -24 8 -73 115 -53
115 16 0 75 -44 85 -63 l12 -21 18 23 c23 29 25 98 3 129 -28 40 -66 52 -169
52 l-95 0 2 -272 3 -273 123 2 c139 3 183 17 207 64 28 53 11 147 -30 162 -15
6 -22 37 -7 37 16 0 53 -33 67 -60 23 -44 19 -121 -7 -160 -43 -62 -84 -75
-243 -75 l-140 0 -3 290 c-1 159 0 295 3 302 6 18 205 18 248 -1z m-63 -251
c0 -8 -7 -15 -15 -15 -16 0 -20 12 -8 23 11 12 23 8 23 -8z m40 -24 c0 -14
-18 -23 -30 -16 -6 4 -8 11 -5 16 8 12 35 12 35 0z m-60 -16 c0 -8 -7 -15 -15
-15 -16 0 -20 12 -8 23 11 12 23 8 23 -8z m40 -26 c0 -5 -7 -9 -15 -9 -15 0
-20 12 -9 23 8 8 24 -1 24 -14z"/>
<path d="M485 540 c16 -31 35 -40 35 -17 0 14 -31 47 -44 47 -3 0 0 -13 9 -30z"/>
<path d="M536 469 c-10 -31 -13 -69 -6 -69 14 0 31 63 20 74 -6 6 -11 4 -14
-5z"/>
</g>
</svg>
